<svg width="156" height="161" viewBox="0 0 156 161" fill="none" xmlns="http://www.w3.org/2000/svg">
<path d="M32.8563 93.1825C47.082 91.1832 53.2952 99.3523 54.8325 110.291C56.3698 121.229 52.6489 130.794 38.4233 132.793C24.1976 134.793 3.31688 117.531 3.31688 117.531C3.31688 117.531 18.6307 95.1818 32.8563 93.1825Z" fill="#00BF67"/>
<path d="M52.758 111.318L40.8238 112.788L24.9085 106.417L38.9517 113.019L33.5857 113.68L22.1118 109.36L32.1656 113.855L22.5146 115.044L13.1553 110.006L20.9969 115.231L3.32813 117.61L26.7899 114.969L25.8183 115.052L17.4619 122.685L27.6833 114.893L38.5192 113.972L38.2362 114.03L29.5317 122.699L39.2477 113.91L40.6028 113.795L40.6249 113.805L40.7344 113.784L68.2258 111.447L67.9446 109.446L53.8197 111.187L42.0865 105.43L52.758 111.318Z" fill="#3F3D56"/>
<path d="M108.096 17.0543C120.537 24.237 120.404 34.4996 114.881 44.0654C109.358 53.6313 100.537 58.878 88.0964 51.6953C75.6556 44.5126 69.8289 18.0545 69.8289 18.0545C69.8289 18.0545 95.6556 9.87155 108.096 17.0543Z" fill="#00BF67"/>
<path d="M112.614 43.5973L102.304 37.4086L93.6855 22.5894L100.687 36.4379L96.0514 33.6552L89.6696 23.1868L94.8247 32.9187L86.4874 27.9141L82.2137 18.1822L85.1764 27.127L69.7888 18.1234L89.9026 30.4872L89.0861 29.954L77.8015 30.8246L90.6534 30.9773L99.7593 36.9227L99.5007 36.794L87.304 38.2666L100.371 37.3224L101.51 38.0659L101.521 38.0877L101.621 38.1381L124.723 53.2221L125.733 51.4726L113.531 44.1479L107.829 32.3881L112.614 43.5973Z" fill="#3F3D56"/>
<path d="M105.004 108.879C116.009 99.6453 125.607 103.281 132.707 111.742C139.807 120.204 141.72 130.287 130.716 139.521C119.711 148.755 92.8557 145.181 92.8557 145.181C92.8557 145.181 93.9995 118.113 105.004 108.879Z" fill="#00BF67"/>
<path d="M131.492 113.712L122.15 121.283L105.277 124.314L120.685 122.471L116.485 125.875L104.465 128.292L115.373 126.776L107.819 132.899L97.2119 133.586L106.631 133.862L92.9071 145.242L111.405 130.57L110.624 131.155L107.583 142.056L112.122 130.032L120.823 123.509L120.614 123.708L117.826 135.672L121.408 123.07L122.496 122.254L122.521 122.251L122.602 122.175L144.678 105.625L143.379 104.078L132.323 113.039L119.322 114.375L131.492 113.712Z" fill="#3F3D56"/>
</svg>
