<svg width="70" height="77" viewBox="0 0 70 77" fill="none" xmlns="http://www.w3.org/2000/svg">
<path d="M51.3648 27.2396C59.2793 39.2282 54.5699 48.3475 45.3518 54.433C36.1337 60.5185 25.8974 61.2658 17.983 49.2772C10.0685 37.2885 16.6909 11.0183 16.6909 11.0183C16.6909 11.0183 43.4503 15.251 51.3648 27.2396Z" fill="#00BF67"/>
<path d="M43.5331 53.0008L37.0803 42.8545L35.9999 25.7453L36.0679 41.2629L33.1666 36.7007L32.1409 24.4834L32.3988 35.4934L27.1803 27.2882L27.7108 16.6725L26.3598 25.9979L16.6241 11.0627L29.084 31.1171L28.5922 30.2751L18.1099 26.0065L29.5363 31.8913L35.0214 41.2816L34.8478 41.0508L23.2803 36.9127L35.3901 41.9129L36.0761 43.0872L36.0762 43.1117L36.1427 43.2013L50.0587 67.0253L51.7446 65.9123L44.1072 53.9035L44.2672 40.8352L43.5331 53.0008Z" fill="#3F3D56"/>
</svg>
