<svg width="152" height="152" viewBox="0 0 152 152" fill="none" xmlns="http://www.w3.org/2000/svg">
<path d="M62.3648 27.2396C70.2793 39.2282 65.5699 48.3475 56.3518 54.433C47.1337 60.5185 36.8974 61.2658 28.983 49.2772C21.0685 37.2885 27.6909 11.0183 27.6909 11.0183C27.6909 11.0183 54.4503 15.251 62.3648 27.2396Z" fill="#00BF67"/>
<path d="M54.5331 53.0008L48.0803 42.8545L46.9999 25.7453L47.0679 41.2629L44.1666 36.7007L43.1409 24.4834L43.3988 35.4934L38.1803 27.2882L38.7108 16.6725L37.3598 25.9979L27.6241 11.0627L40.084 31.1171L39.5922 30.2751L29.1099 26.0065L40.5363 31.8913L46.0214 41.2816L45.8478 41.0508L34.2803 36.9127L46.3901 41.9129L47.0761 43.0872L47.0762 43.1117L47.1427 43.2013L61.0587 67.0253L62.7446 65.9123L55.1072 53.9035L55.2672 40.8352L54.5331 53.0008Z" fill="#3F3D56"/>
<path d="M133.365 60.2396C141.279 72.2282 136.57 81.3475 127.352 87.433C118.134 93.5185 107.897 94.2658 99.983 82.2772C92.0685 70.2885 98.6909 44.0183 98.6909 44.0183C98.6909 44.0183 125.45 48.251 133.365 60.2396Z" fill="#00BF67"/>
<path d="M125.533 86.0008L119.08 75.8545L118 58.7453L118.068 74.2629L115.167 69.7007L114.141 57.4834L114.399 68.4934L109.18 60.2882L109.711 49.6725L108.36 58.9979L98.6241 44.0627L111.084 64.1171L110.592 63.2751L100.11 59.0065L111.536 64.8913L117.021 74.2816L116.848 74.0508L105.28 69.9127L117.39 74.9129L118.076 76.0872L118.076 76.1117L118.143 76.2013L132.059 100.025L133.745 98.9123L126.107 86.9035L126.267 73.8352L125.533 86.0008Z" fill="#3F3D56"/>
<path d="M52.0021 101.397C61.2361 112.402 57.6008 122 49.1393 129.1C40.6778 136.2 30.5943 138.113 21.3603 127.109C12.1264 116.104 15.7003 89.2487 15.7003 89.2487C15.7003 89.2487 42.7682 90.3925 52.0021 101.397Z" fill="#00BF67"/>
<path d="M47.1686 127.885L39.5976 118.543L36.567 101.67L38.4098 117.078L35.0056 112.877L32.589 100.858L34.1047 111.766L27.9819 104.211L27.2945 93.6048L27.0192 103.023L15.6389 89.3L30.3111 107.797L29.7262 107.017L18.8244 103.976L30.849 108.515L37.3722 117.216L37.1733 117.007L25.2085 114.219L37.8108 117.801L38.6266 118.889L38.6295 118.913L38.7058 118.995L55.2557 141.071L56.8032 139.772L47.8423 128.716L46.5063 115.715L47.1686 127.885Z" fill="#3F3D56"/>
</svg>
