<svg width="438" height="648" viewBox="0 0 438 648" fill="none" xmlns="http://www.w3.org/2000/svg">
<path d="M396.976 319C396.976 495.179 316.984 634.163 218.476 638C90.0131 643.003 -77.8811 514.914 39.9756 319C130.793 168.033 119.893 0 218.476 0C317.058 0 396.976 142.821 396.976 319Z" fill="#F2F2F2"/>
<path d="M167.976 648C255.789 648 326.976 640.389 326.976 631C326.976 621.611 255.789 614 167.976 614C80.1623 614 8.97559 621.611 8.97559 631C8.97559 640.389 80.1623 648 167.976 648Z" fill="#3F3D56"/>
<path d="M304.468 419.88C305.091 426.198 301.554 428.774 296.921 429.232C292.289 429.689 288.315 427.855 287.691 421.537C287.068 415.22 294.662 406.355 294.662 406.355C294.662 406.355 303.844 413.563 304.468 419.88Z" fill="#00BF67"/>
<path d="M239.377 401.752C236.005 407.131 231.631 407.004 227.687 404.532C223.742 402.059 221.722 398.177 225.094 392.798C228.466 387.42 239.897 385.055 239.897 385.055C239.897 385.055 242.749 396.374 239.377 401.752Z" fill="#00BF67"/>
<path d="M235.719 547.113C235.719 547.113 243.249 579.876 254.977 586.937C266.706 593.998 226.35 607.388 226.35 607.388C226.35 607.388 208.786 618.276 204.224 622.214C199.662 626.151 180.11 634.574 183.333 628.318C186.556 622.062 192.217 610.165 201.158 600.281C210.098 590.397 221.852 572.702 211.613 558.921C201.374 545.14 235.719 547.113 235.719 547.113Z" fill="#FFB9B9"/>
<path d="M194.947 148.541L191 147.131C191 147.131 180.852 145.722 171.55 157.561C162.247 169.401 140.964 205.343 140.964 205.343L133.071 223.948L160.979 224.793L181.98 178.563L194.947 148.541Z" fill="#FF6584"/>
<path opacity="0.1" d="M194.947 148.541L191 147.131C191 147.131 180.852 145.722 171.55 157.561C162.247 169.401 140.964 205.343 140.964 205.343L133.071 223.948L160.979 224.793L181.98 178.563L194.947 148.541Z" fill="black"/>
<path d="M190.719 434.805C190.719 434.805 206.646 438.328 203.968 450.591C201.29 462.853 220.6 478.78 222.432 481.458C224.264 484.136 226.942 485.264 225.251 489.351C223.56 493.439 264.575 551.086 256.4 556.302C248.225 561.517 181.98 581.954 176.06 577.867C170.14 573.779 165.348 440.02 165.348 440.02L190.719 434.805Z" fill="#2F2E41"/>
<path opacity="0.1" d="M190.719 434.805C190.719 434.805 206.646 438.328 203.968 450.591C201.29 462.853 220.6 478.78 222.432 481.458C224.264 484.136 226.942 485.264 225.251 489.351C223.56 493.439 264.575 551.086 256.4 556.302C248.225 561.517 181.98 581.954 176.06 577.867C170.14 573.779 165.348 440.02 165.348 440.02L190.719 434.805Z" fill="black"/>
<path d="M154.495 580.263C154.495 580.263 144.629 612.4 151.253 624.38C157.878 636.361 116.235 627.771 116.235 627.771C116.235 627.771 95.5804 628.415 89.6606 629.543C83.7408 630.67 62.5972 628.186 68.517 624.38C74.4368 620.574 85.2898 613.104 97.975 609.017C110.66 604.929 129.688 595.486 127.715 578.431C125.742 561.377 154.495 580.263 154.495 580.263Z" fill="#FFB9B9"/>
<path d="M136.031 259.043C141.491 255.143 148.068 253.116 154.777 253.264C165.63 253.687 201.149 262.144 200.162 263.836C199.188 265.324 198.105 266.737 196.92 268.064C196.92 268.064 199.175 278.353 198.189 279.34C197.202 280.326 217.499 303.583 205.659 353.478C193.819 403.374 195.088 437.906 195.088 437.906C195.088 437.906 199.88 584.209 186.208 587.169C172.536 590.129 118.694 588.156 116.157 582.377C113.62 576.598 123.909 397.172 123.909 397.172C123.909 397.172 125.037 306.966 127.715 295.972C130.393 284.978 136.031 259.043 136.031 259.043Z" fill="#2F2E41"/>
<path d="M198.118 131.697C216.878 131.697 232.087 116.489 232.087 97.7291C232.087 78.9689 216.878 63.7607 198.118 63.7607C179.358 63.7607 164.15 78.9689 164.15 97.7291C164.15 116.489 179.358 131.697 198.118 131.697Z" fill="#FFB9B9"/>
<path d="M192.974 120.21C192.974 120.21 213.975 140.788 188.041 156.715C169.779 167.93 232.157 147.977 232.157 147.977C232.157 147.977 219.19 114.854 221.163 107.243C223.137 99.6317 192.974 120.21 192.974 120.21Z" fill="#FFB9B9"/>
<path d="M198.189 152.347C198.189 152.347 227.365 138.957 232.157 143.749C236.949 148.541 257.669 168.274 235.117 203.229C212.565 238.184 208.196 264.4 204.39 267.36C200.585 270.32 198.189 263.554 198.189 263.554C198.189 263.554 187.195 253.547 180.006 253.547C172.818 253.547 142.092 256.93 142.092 256.93L150.689 222.82C150.689 222.82 146.461 195.899 160.838 182.509C175.214 169.119 191 147.132 191 147.132L199.141 145.644L193.766 152.49C193.766 152.49 192.974 154.602 198.189 152.347Z" fill="#FF6584"/>
<path d="M275.142 381.82C216.238 360.307 208.46 317.777 224.236 274.581C240.013 231.384 273.37 203.878 332.274 225.391C391.179 246.905 437.549 352.488 437.549 352.488C437.549 352.488 334.047 403.334 275.142 381.82Z" fill="#00BF67"/>
<path d="M234.288 275.021L283.293 293.827L332.106 349.439L290.981 296.777L313.016 305.233L348.749 344.324L318.847 307.471L358.477 322.679L384.62 360.112L364.709 325.07L437.664 352.174L341.818 314.286L345.734 315.953L393.158 304.923L338.217 312.753L294.544 294.161L295.751 294.523L346.575 280.402L291.608 292.911L286.146 290.586L286.081 290.503L285.615 290.36L174.812 243.19L171.926 251.09L229.928 273.348L263.812 318.228L234.288 275.021Z" fill="#3F3D56"/>
<path d="M131.098 226.766C131.098 226.766 118.553 243.68 126.869 250.023C135.185 256.365 152.663 245.512 152.663 245.512C152.663 245.512 192.974 273.561 192.41 257.07C191.846 240.579 162.952 229.163 162.952 229.163L143.501 229.726L146.461 220.001L138.286 219.155L131.098 226.766Z" fill="#FFB9B9"/>
<path opacity="0.1" d="M131.098 226.766C131.098 226.766 118.553 243.68 126.869 250.023C135.185 256.365 152.663 245.512 152.663 245.512C152.663 245.512 192.974 273.561 192.41 257.07C191.846 240.579 162.952 229.163 162.952 229.163L143.501 229.726L146.461 220.001L138.286 219.155L131.098 226.766Z" fill="black"/>
<path d="M215.244 194.207C215.244 194.207 136.031 255.238 130.957 233.814C127.659 219.89 130.196 185.606 132.376 163.307C133.934 147.072 141.185 131.911 152.845 120.506C157.597 115.877 162.006 112.971 164.221 115.136C170.422 121.197 149.703 145.44 149.703 145.44C149.703 145.44 146.32 194.63 153.086 200.268C153.086 200.268 177.596 176.601 182.677 176.947C187.759 177.294 215.244 194.207 215.244 194.207Z" fill="#FFB9B9"/>
<path d="M267.712 129.492C261.223 119.724 255.866 104.014 250.084 90.177C248.211 85.6927 246.499 81.1498 244.823 76.588C241.445 67.3935 226.737 55.5254 207.476 55.5254C185.46 55.5254 167.614 66.6041 167.614 75.8994C167.614 83.5846 179.818 90.0619 196.486 92.0771C190.63 105.148 187.102 119.655 187.102 129.492C187.102 151.752 205.147 142.337 227.407 142.337C249.667 142.337 280.03 148.034 267.712 129.492Z" fill="#2F2E41"/>
<path d="M232.157 156.152C232.157 156.152 246.252 192.093 214.539 200.268C214.539 200.268 208.337 191.671 198.189 190.261C188.041 188.852 179.02 178.281 179.02 178.281C179.02 178.281 199.739 149.104 215.948 148.541C232.157 147.977 232.157 156.152 232.157 156.152Z" fill="#FF6584"/>
</svg>
